<?xml version="1.0" standalone="no"?>
<!DOCTYPE svg PUBLIC "-//W3C//DTD SVG 20010904//EN"
 "http://www.w3.org/TR/2001/REC-SVG-20010904/DTD/svg10.dtd">
<svg version="1.0" xmlns="http://www.w3.org/2000/svg"
 width="16.000000pt" height="16.000000pt" viewBox="0 0 16.000000 16.000000"
 preserveAspectRatio="xMidYMid meet">
<metadata>
Created by potrace 1.11, written by Peter Selinger 2001-2013
</metadata>
<g transform="translate(0.000000,16.000000) scale(0.001600,-0.001600)"
fill="#000000" stroke="none">
<path d="M4440 9920 c-297 -55 -546 -360 -659 -805 -11 -44 -23 -102 -27 -130
-3 -27 -8 -52 -9 -55 -8 -13 -19 -206 -19 -320 1 -119 10 -261 20 -305 3 -11
6 -36 8 -55 17 -155 114 -488 194 -660 30 -65 126 -225 147 -247 8 -8 15 -19
15 -24 0 -17 214 -224 270 -261 62 -40 173 -99 178 -93 2 1 -8 41 -21 86 -70
237 -79 391 -32 553 62 211 264 339 452 287 77 -21 206 -130 293 -247 93 -124
181 -360 204 -544 3 -25 8 -56 10 -70 25 -139 19 -545 -9 -711 -2 -13 -6 -46
-9 -73 -10 -82 -35 -224 -63 -346 -14 -63 -28 -125 -31 -137 -6 -30 3 -29 63
6 237 137 486 584 615 1101 36 147 42 172 56 264 3 21 8 48 10 60 2 11 7 45
10 75 3 30 7 63 9 73 24 122 23 605 -1 773 -10 73 -44 240 -54 265 -5 14 -11
34 -13 45 -2 11 -6 27 -9 35 -3 8 -11 33 -18 55 -42 138 -176 436 -230 515
-10 14 -35 52 -56 85 -170 266 -430 525 -659 655 -117 67 -268 128 -360 145
-54 11 -229 14 -275 5z"/>
<path d="M1727 8664 c-1 -1 -29 -4 -62 -8 -115 -12 -206 -43 -294 -101 -454
-301 -577 -1042 -331 -2005 177 -693 522 -1224 1005 -1546 148 -98 424 -227
535 -249 8 -2 35 -8 60 -15 25 -7 56 -14 70 -16 14 -3 32 -7 40 -9 49 -13 157
-20 315 -19 160 1 191 4 280 28 228 60 363 159 481 353 74 122 150 341 169
488 3 22 8 65 12 95 5 30 8 141 8 245 0 237 -8 321 -51 525 -13 63 -27 127
-30 142 -13 67 -98 311 -150 431 -231 530 -550 957 -939 1253 -326 248 -699
395 -1033 407 -46 1 -84 2 -85 1z"/>
<path d="M7345 7829 c-194 -25 -365 -206 -468 -494 -26 -74 -74 -274 -83 -348
-3 -23 -7 -51 -9 -62 -19 -92 -26 -498 -12 -671 8 -98 12 -126 34 -244 9 -50
45 -185 68 -254 131 -398 394 -710 721 -856 78 -34 216 -67 296 -69 138 -4
234 34 333 133 111 112 218 327 261 531 4 17 11 53 29 144 13 66 20 181 20
321 0 140 -11 325 -19 339 -2 3 -7 28 -10 55 -17 123 -57 288 -108 441 -36
108 -153 363 -209 455 -83 135 -253 325 -374 415 -155 116 -341 181 -470 164z"/>
<path d="M5215 5260 c-152 -22 -325 -96 -466 -202 -188 -140 -435 -424 -585
-671 -16 -27 -37 -61 -46 -75 -10 -15 -21 -34 -25 -42 -4 -8 -29 -53 -56 -100
-111 -193 -273 -546 -377 -825 -55 -147 -161 -461 -187 -555 -39 -143 -108
-406 -118 -450 -2 -8 -19 -91 -39 -185 -32 -156 -39 -192 -52 -280 -3 -16 -9
-52 -14 -80 -5 -27 -11 -71 -15 -97 -3 -27 -7 -69 -10 -95 -3 -27 -8 -59 -10
-73 -3 -14 -7 -65 -11 -115 -3 -49 -8 -110 -10 -135 -5 -64 -4 -409 1 -445 2
-16 7 -61 11 -100 4 -38 8 -72 9 -75 1 -3 5 -25 9 -50 55 -314 211 -502 461
-555 89 -18 300 -14 410 10 313 66 592 199 805 385 14 12 52 45 85 73 147 128
344 340 542 581 125 153 402 543 500 706 11 19 37 62 58 95 72 117 67 118 -42
9 -180 -179 -337 -324 -477 -439 -27 -22 -63 -52 -80 -66 -131 -109 -342 -251
-479 -323 -100 -52 -127 -58 -122 -23 2 12 6 53 9 90 21 238 100 537 198 749
169 367 408 658 749 912 75 55 152 110 170 120 119 69 228 129 254 140 17 8
59 27 95 44 164 76 435 167 560 188 14 2 45 8 70 13 118 24 412 33 545 17 355
-43 613 -124 965 -301 196 -98 476 -273 608 -380 205 -166 212 -171 294 -247
35 -33 40 -34 31 -11 -7 18 -102 164 -112 173 -3 3 -26 32 -50 65 -25 33 -47
62 -50 65 -3 3 -28 32 -56 65 -166 200 -486 525 -759 770 -49 44 -99 89 -112
100 -356 321 -936 759 -1354 1021 -522 328 -1038 548 -1410 599 -70 10 -259
12 -315 5z"/>
<path d="M1338 4675 c-2 -1 -34 -5 -72 -9 -78 -7 -199 -46 -266 -85 -71 -41
-173 -148 -209 -218 -52 -103 -74 -202 -74 -333 -1 -102 8 -214 19 -231 2 -3
6 -21 9 -40 18 -105 69 -244 146 -399 132 -263 331 -478 551 -594 117 -61 265
-111 363 -123 21 -2 43 -7 47 -9 10 -7 257 -6 288 1 14 3 51 10 83 16 32 5 71
15 85 21 15 6 36 14 47 18 126 48 225 139 283 261 62 131 76 200 76 374 1 161
-13 247 -59 390 -106 323 -402 672 -694 820 -162 81 -352 132 -524 138 -53 2
-98 3 -99 2z"/>
</g>
</svg>
